<svg xmlns="http://www.w3.org/2000/svg">
  <symbol id="floppy-icon" viewBox="0 0 28 28">
    <path d="M0 0h2.154v2.154H0zM0 2.154h2.154v2.154H0zM0 4.308h2.154v2.154H0z"/>
    <path d="M0 6.461h2.154v2.154H0zM0 8.615h2.154v2.154H0zM0 10.769h2.154v2.154H0zM0 12.923h2.154v2.154H0zM0 15.077h2.154v2.154H0zM0 17.231h2.154v2.154H0zM0 19.385h2.154v2.154H0zM0 21.539h2.154v2.154H0z"/>
    <path d="M0 23.692h2.154v2.154H0zM0 25.846h2.154V28H0zM23.693 0v2.154h-2.154V0z"/>
    <path d="M21.54 0v2.154h-2.155V0zM19.384 0v2.154H17.23V0zM17.23 0v2.154h-2.154V0z"/>
    <path d="M15.077 0v2.154h-2.154V0zM12.923 0v2.154H10.77V0zM10.77 0v2.154H8.615V0z"/>
    <path d="M8.616 0v2.154H6.462V0zM6.46 0v2.154H4.308V0zM4.307 0v2.154H2.153V0zM25.846 2.153v2.154h-2.154V2.153zM6.46 4.308v2.154H4.308V4.308zM6.46 2.154v2.154H4.308V2.154z"/>
    <path d="M6.461 6.461v2.154H4.307V6.461zM21.539 4.308v2.154h-2.154V4.308zM21.539 2.154v2.154h-2.154V2.154z"/>
    <path d="M21.54 6.461v2.154h-2.154V6.461zM17.23 4.307v2.154h-2.154V4.307zM17.23 2.153v2.154h-2.154V2.153z"/>
    <path d="M17.23 6.46v2.155h-2.153V6.46zM21.54 8.615v2.154h-2.155V8.615zM19.384 8.615v2.154H17.23V8.615zM17.23 8.615v2.154h-2.153V8.615zM15.077 8.615v2.154h-2.154V8.615zM12.923 8.615v2.154H10.77V8.615zM10.77 8.616v2.154H8.616V8.616zM8.616 8.615v2.154H6.462V8.615zM6.461 8.615v2.154H4.307V8.615zM23.692 15.077v2.154h-2.154v-2.154z"/>
    <path d="M21.539 15.077v2.154h-2.154v-2.154zM19.384 15.077v2.154H17.23v-2.154zM17.23 15.076v2.154h-2.154v-2.154z"/>
    <path d="M15.077 15.077v2.154h-2.155v-2.154z"/>
    <path d="M12.923 15.077v2.153h-2.154v-2.153z"/>
    <path d="M10.77 15.077v2.154H8.614v-2.154z"/>
    <path d="M8.616 15.077v2.154H6.462v-2.154zM6.46 15.077v2.154H4.308v-2.154zM23.693 17.231v2.154h-2.154v-2.154zM6.46 17.231v2.154H4.308v-2.154zM23.692 19.385v2.154h-2.154v-2.154zM6.46 19.385v2.154H4.308v-2.154zM23.692 21.539v2.154h-2.154v-2.154zM6.46 21.539v2.154H4.308v-2.154z"/>
    <path d="M6.461 23.692v2.154H4.307v-2.154zM23.693 23.693v2.154H21.54v-2.154zM25.847 25.846V28h-2.154v-2.154z"/>
    <path d="M23.693 25.847V28h-2.154v-2.154z"/>
    <path d="M21.54 25.846V28h-2.155v-2.154zM19.384 25.846V28H17.23v-2.154zM17.23 25.846V28h-2.153v-2.154zM15.077 25.846V28h-2.154v-2.154zM12.923 25.846V28H10.77v-2.154zM10.77 25.847V28H8.616v-2.154zM8.616 25.846V28H6.462v-2.154zM6.461 25.846V28H4.307v-2.154zM4.307 25.846V28H2.153v-2.154zM28 28h-2.154v-2.154H28zM28 25.846h-2.154v-2.154H28z"/>
    <path d="M28 23.693h-2.154v-2.154H28zM28 21.538h-2.154v-2.154H28z"/>
    <path d="M28 19.385h-2.154V17.23H28z"/>
    <path d="M28 17.231h-2.154v-2.154H28zM28 15.076h-2.154v-2.154H28z"/>
    <path d="M28 12.924h-2.154V10.77H28zM28 10.769h-2.154V8.615H28zM28 8.615h-2.154V6.461H28z"/>
    <path d="M28 6.462h-2.154V4.308H28z"/>
  </symbol>
</svg>